<svg width="300" height="300" xmlns="http://www.w3.org/2000/svg" preserveAspectRatio="xMidYMid meet">
 <metadata>Created by potrace 1.15, written by Peter Selinger 2001-2017</metadata>

 <g>
  <title>background</title>
  <rect fill="none" id="canvas_background" height="302" width="302" y="-1" x="-1"/>
 </g>
 <g>
  <title>Layer 1</title>
  <ellipse ry="140" rx="140" id="svg_4" cy="148.5" cx="149.5" stroke-width="0" stroke="#000" fill="#000000"/>
  <g stroke="null" id="svg_1" fill="#000000" transform="translate(0,200) scale(0.10000000149011612,-0.10000000149011612) ">
   <path stroke="null" fill="#ffffff" id="svg_2" d="m1434.215911,1336.714174c-41.826491,-25.459603 -65.467551,-69.104637 -65.467551,-119.114572c0,-39.098676 -1.818543,-42.735762 -26.368875,-47.28212c-108.203313,-21.822517 -251.868216,-140.027817 -312.789409,-257.323845c-54.556292,-106.38477 -60.921193,-148.211261 -60.921193,-430.994709l0,-250.049673l-81.834438,-81.834438c-80.015895,-80.015895 -81.834438,-82.74371 -81.834438,-124.570201l0,-43.645034l686.500011,0l686.500011,0l0,43.645034c0,41.826491 -1.818543,44.554305 -76.378809,119.114572l-76.378809,76.378809l-3.637086,269.144375c-3.637086,248.23113 -5.455629,273.690733 -24.550332,330.97484c-54.556292,165.48742 -170.943049,286.420535 -330.97484,342.79537l-47.28212,16.366888l-4.546358,54.556292c-5.455629,60.921193 -22.731788,87.290068 -70.013908,107.294042c-40.917219,17.276159 -74.560266,15.457616 -110.021856,-5.455629z"/>
   <path stroke="null" fill="#ffffff" id="svg_3" d="m1332.377499,-119.029559c0,-15.457616 8.183444,-43.645034 19.094702,-61.830465c50.919206,-90.927154 175.489407,-110.021856 257.323845,-38.189405c22.731788,20.003974 50.919206,77.288081 50.919206,105.475498l0,22.731788l-163.668877,0l-163.668877,0l0,-28.187418z"/>
  </g>
 </g>
</svg>